# xmcd CD database generated by RipIT
#
# Track frame offsets:
# 150
# 16329
# 40347
# 53224
# 67312
# 82751
# 100231
# 122140
# 138423
# 153762
# 169911
# 184091
# 202745
# 221100
# 230809
# 240018
# 251368
# 254357
# 284506
#
# Disc length: 4060 seconds
#
# Revision: 2
# Processed by: cddbd v1.5.2PL0 Copyright (c) Steve Scherf et al.
# Submitted via: RipIT 3.9.0 www.suwald.com/ripit/ripit.html on 2018-02-12 at 19:21
#
DISCID=090fda13
DTITLE=David Bowie - Re:Call 3
DYEAR=2017
DGENRE=Rock
TTITLE0=David Bowie - ''Heroes'' [Single]
TTITLE1=David Bowie - Beauty And The Beast [Extended Version]
TTITLE2=David Bowie - Breaking Glass [Australian Single]
TTITLE3=David Bowie - Yassassin [Single]
TTITLE4=David Bowie - D.J. [Single]
TTITLE5=David Bowie - Alabama Song
TTITLE6=David Bowie - Space Oddity [1979 Version]
TTITLE7=David Bowie - Ashes To Ashes [Single]
TTITLE8=David Bowie - Fashion [Single]
TTITLE9=David Bowie - Scary Monsters (And Super Creeps) [Single]
TTITLE10=David Bowie - Crystal Japan
TTITLE11=Queen and David Bowie - Under Pressure [Single]
TTITLE12=David Bowie - Baal's Hymn
TTITLE13=David Bowie - Remembering Marie A.
TTITLE14=David Bowie - Ballad Of The Adventurers
TTITLE15=David Bowie - The Drowned Girl
TTITLE16=David Bowie - The Dirty Song
TTITLE17=David Bowie - Cat People (Putting Out Fire) [Soundtrack Album Version]
TTITLE18=David Bowie and Bing Cosby - Peace On Earth/Little Drummer Boy [Mono]
EXTD=
EXTT0=
EXTT1=
EXTT2=
EXTT3=
EXTT4=
EXTT5=
EXTT6=
EXTT7=
EXTT8=
EXTT9=
EXTT10=
EXTT11=
EXTT12=
EXTT13=
EXTT14=
EXTT15=
EXTT16=
EXTT17=
EXTT18=
PLAYORDER=
